<svg width="175" height="30" viewBox="0 0 175 30" fill="none" xmlns="http://www.w3.org/2000/svg">
<path d="M1.49807 30C1.06725 30 0.704975 29.8537 0.411236 29.561C0.137079 29.2878 0 28.9366 0 28.5073V15.161C0.0195827 13.6195 0.381862 12.2341 1.08684 11.0049C1.79181 9.77561 2.75136 8.80976 3.96549 8.10732C5.17961 7.38537 6.55039 7.02439 8.07784 7.02439C9.62487 7.02439 11.0054 7.38537 12.2196 8.10732C13.4337 8.80976 14.3932 9.77561 15.0982 11.0049C15.8228 12.2341 16.1851 13.6195 16.1851 15.161C16.1851 16.7024 15.8522 18.0878 15.1863 19.3171C14.5401 20.5268 13.6491 21.4927 12.5133 22.2146C11.3775 22.9171 10.0949 23.2683 8.66532 23.2683C7.50994 23.2683 6.44269 23.0341 5.46356 22.5659C4.50401 22.0781 3.68154 21.4244 2.99614 20.6049V28.5073C2.99614 28.9366 2.85907 29.2878 2.58491 29.561C2.31075 29.8537 1.94847 30 1.49807 30ZM8.07784 20.6341C9.07656 20.6341 9.96757 20.4 10.7509 19.9317C11.5342 19.4439 12.151 18.7902 12.6014 17.9707C13.0714 17.1317 13.3064 16.1951 13.3064 15.161C13.3064 14.1073 13.0714 13.1707 12.6014 12.3512C12.151 11.5122 11.5342 10.8585 10.7509 10.3902C9.96757 9.90244 9.07656 9.65854 8.07784 9.65854C7.09871 9.65854 6.2077 9.90244 5.40481 10.3902C4.62151 10.8585 4.00465 11.5122 3.55425 12.3512C3.10385 13.1707 2.87865 14.1073 2.87865 15.161C2.87865 16.1951 3.10385 17.1317 3.55425 17.9707C4.00465 18.7902 4.62151 19.4439 5.40481 19.9317C6.2077 20.4 7.09871 20.6341 8.07784 20.6341Z" fill="white"/>
<path d="M24.6191 23.1512C23.7574 23.1512 22.9937 22.9171 22.3279 22.4488C21.6621 21.9805 21.1431 21.3463 20.7711 20.5463C20.399 19.7268 20.213 18.7902 20.213 17.7366V1.7561C20.213 1.32683 20.35 0.975609 20.6242 0.702439C20.8984 0.429268 21.2508 0.292683 21.6817 0.292683C22.1125 0.292683 22.465 0.429268 22.7391 0.702439C23.0133 0.975609 23.1504 1.32683 23.1504 1.7561V17.7366C23.1504 18.4585 23.2874 19.0537 23.5616 19.522C23.8358 19.9902 24.1882 20.2244 24.6191 20.2244H25.3534C25.7451 20.2244 26.0584 20.361 26.2934 20.6341C26.5479 20.9073 26.6752 21.2585 26.6752 21.6878C26.6752 22.1171 26.4892 22.4683 26.1171 22.7415C25.7451 23.0146 25.2653 23.1512 24.6778 23.1512H24.6191Z" fill="white"/>
<path d="M36.5098 23.2976C35.1586 23.2976 33.9445 23.0146 32.8674 22.4488C31.8099 21.8634 30.9679 21.0146 30.3412 19.9024C29.7342 18.7902 29.4306 17.4244 29.4306 15.8049V8.60488C29.4306 8.17561 29.5677 7.82439 29.8419 7.55122C30.1356 7.25854 30.4979 7.11219 30.9287 7.11219C31.3595 7.11219 31.712 7.25854 31.9862 7.55122C32.2799 7.82439 32.4268 8.17561 32.4268 8.60488V15.8049C32.4268 16.8976 32.6324 17.8049 33.0436 18.5268C33.4549 19.2293 34.013 19.7561 34.718 20.1073C35.4229 20.439 36.216 20.6049 37.0973 20.6049C37.9393 20.6049 38.6834 20.439 39.3297 20.1073C39.9955 19.7756 40.5242 19.3268 40.9159 18.761C41.3075 18.1951 41.5033 17.561 41.5033 16.8585H43.3539C43.3539 18.0683 43.0504 19.161 42.4433 20.1366C41.8558 21.1122 41.0432 21.8829 40.0053 22.4488C38.987 23.0146 37.8218 23.2976 36.5098 23.2976ZM43.0014 23.1512C42.5706 23.1512 42.2083 23.0146 41.9146 22.7415C41.6404 22.4488 41.5033 22.0878 41.5033 21.6585V8.60488C41.5033 8.1561 41.6404 7.79512 41.9146 7.52195C42.2083 7.24878 42.5706 7.11219 43.0014 7.11219C43.4518 7.11219 43.8141 7.24878 44.0883 7.52195C44.3624 7.79512 44.4995 8.1561 44.4995 8.60488V21.6585C44.4995 22.0878 44.3624 22.4488 44.0883 22.7415C43.8141 23.0146 43.4518 23.1512 43.0014 23.1512Z" fill="white"/>
<path d="M55.7685 23.1512C54.7894 23.1512 53.9082 22.9073 53.1249 22.4195C52.3416 21.9122 51.7247 21.2293 51.2743 20.3707C50.8239 19.5122 50.5987 18.5463 50.5987 17.4732V3.5122C50.5987 3.08293 50.7358 2.73171 51.01 2.45854C51.2841 2.18537 51.6366 2.04878 52.0674 2.04878C52.4982 2.04878 52.8507 2.18537 53.1249 2.45854C53.399 2.73171 53.5361 3.08293 53.5361 3.5122V17.4732C53.5361 18.2537 53.7515 18.9073 54.1823 19.4341C54.6132 19.961 55.1419 20.2244 55.7685 20.2244H56.7673C57.1197 20.2244 57.4135 20.361 57.6485 20.6341C57.903 20.9073 58.0303 21.2585 58.0303 21.6878C58.0303 22.1171 57.8639 22.4683 57.531 22.7415C57.2177 23.0146 56.8064 23.1512 56.2973 23.1512H55.7685ZM49.2475 10.2439C48.8363 10.2439 48.5034 10.1268 48.2488 9.89268C47.9942 9.65854 47.8669 9.36585 47.8669 9.01464C47.8669 8.62439 47.9942 8.3122 48.2488 8.07805C48.5034 7.8439 48.8363 7.72683 49.2475 7.72683H56.0329C56.4441 7.72683 56.777 7.8439 57.0316 8.07805C57.2862 8.3122 57.4135 8.62439 57.4135 9.01464C57.4135 9.36585 57.2862 9.65854 57.0316 9.89268C56.777 10.1268 56.4441 10.2439 56.0329 10.2439H49.2475Z" fill="white"/>
<path d="M69.1445 23.2683C67.5583 23.2683 66.1581 22.9268 64.944 22.2439C63.7299 21.5415 62.7703 20.5854 62.0654 19.3756C61.38 18.1463 61.0373 16.7415 61.0373 15.161C61.0373 13.561 61.38 12.1561 62.0654 10.9463C62.7703 9.71707 63.7299 8.76098 64.944 8.07805C66.1581 7.37561 67.5583 7.02439 69.1445 7.02439C70.7111 7.02439 72.1015 7.37561 73.3156 8.07805C74.5297 8.76098 75.4795 9.71707 76.1649 10.9463C76.8698 12.1561 77.2223 13.561 77.2223 15.161C77.2223 16.7415 76.8796 18.1463 76.1942 19.3756C75.5088 20.5854 74.5591 21.5415 73.345 22.2439C72.1308 22.9268 70.7307 23.2683 69.1445 23.2683ZM69.1445 20.6341C70.1628 20.6341 71.0636 20.4 71.8469 19.9317C72.6302 19.4634 73.2373 18.8195 73.6681 18C74.1185 17.1805 74.3437 16.2341 74.3437 15.161C74.3437 14.0878 74.1185 13.1415 73.6681 12.322C73.2373 11.4829 72.6302 10.8293 71.8469 10.361C71.0636 9.89268 70.1628 9.65854 69.1445 9.65854C68.1262 9.65854 67.2254 9.89268 66.4421 10.361C65.6588 10.8293 65.0419 11.4829 64.5915 12.322C64.1411 13.1415 63.9159 14.0878 63.9159 15.161C63.9159 16.2341 64.1411 17.1805 64.5915 18C65.0419 18.8195 65.6588 19.4634 66.4421 19.9317C67.2254 20.4 68.1262 20.6341 69.1445 20.6341Z" fill="white"/>
<path d="M87.6737 23.2683C86.3029 23.2683 85.0301 23.0634 83.8551 22.6537C82.6997 22.2244 81.7989 21.6878 81.1527 21.0439C80.859 20.7317 80.7317 20.3805 80.7708 19.9902C80.8296 19.5805 81.0254 19.2488 81.3583 18.9951C81.75 18.6829 82.1318 18.5561 82.5039 18.6146C82.8955 18.6537 83.2285 18.8195 83.5026 19.1122C83.8355 19.4829 84.3643 19.8341 85.0888 20.1659C85.833 20.4781 86.6554 20.6341 87.5562 20.6341C88.692 20.6341 89.5537 20.4488 90.1411 20.0781C90.7482 19.7073 91.0615 19.2293 91.0811 18.6439C91.1007 18.0585 90.8167 17.5512 90.2293 17.122C89.6614 16.6927 88.6137 16.3415 87.0862 16.0683C85.1084 15.6781 83.6691 15.0927 82.7683 14.3122C81.887 13.5317 81.4464 12.5756 81.4464 11.4439C81.4464 10.4488 81.7402 9.62927 82.3277 8.98537C82.9151 8.32195 83.6691 7.83415 84.5895 7.52195C85.5098 7.19024 86.4694 7.02439 87.4681 7.02439C88.7606 7.02439 89.9062 7.22927 90.9049 7.63902C91.9036 8.04878 92.6967 8.61463 93.2841 9.33659C93.5583 9.64878 93.6856 9.98049 93.666 10.3317C93.6464 10.6634 93.48 10.9463 93.1667 11.1805C92.8533 11.3951 92.4813 11.4634 92.0504 11.3854C91.6196 11.3073 91.2573 11.1317 90.9636 10.8585C90.474 10.3902 89.9453 10.0683 89.3774 9.89268C88.8095 9.71707 88.1535 9.62927 87.4094 9.62927C86.5477 9.62927 85.8134 9.77561 85.2063 10.0683C84.6188 10.361 84.3251 10.7902 84.3251 11.3561C84.3251 11.7073 84.4132 12.0293 84.5895 12.322C84.7853 12.5951 85.1574 12.8488 85.7057 13.0829C86.254 13.2976 87.0569 13.5122 88.1143 13.7268C89.583 14.0195 90.7384 14.3902 91.5805 14.839C92.4421 15.2878 93.0589 15.8146 93.431 16.4195C93.8031 17.0049 93.9891 17.6878 93.9891 18.4683C93.9891 19.3659 93.7443 20.1756 93.2548 20.8976C92.7848 21.6195 92.0798 22.1951 91.1398 22.6244C90.2195 23.0537 89.0641 23.2683 87.6737 23.2683Z" fill="white"/>
<path d="M117.575 23.4439C115.851 23.4439 114.275 23.161 112.845 22.5951C111.416 22.0098 110.182 21.2 109.144 20.1659C108.126 19.1122 107.333 17.8732 106.765 16.4488C106.197 15.0049 105.913 13.4244 105.913 11.7073C105.913 9.99024 106.197 8.41951 106.765 6.99512C107.333 5.57073 108.126 4.34146 109.144 3.30732C110.182 2.25366 111.416 1.4439 112.845 0.878048C114.275 0.292683 115.851 0 117.575 0C119.298 0 120.864 0.292683 122.274 0.878048C123.704 1.4439 124.938 2.25366 125.976 3.30732C127.013 4.34146 127.816 5.57073 128.384 6.99512C128.952 8.41951 129.236 9.99024 129.236 11.7073C129.236 13.4244 128.952 15.0049 128.384 16.4488C127.816 17.8732 127.013 19.1122 125.976 20.1659C124.938 21.2 123.704 22.0098 122.274 22.5951C120.864 23.161 119.298 23.4439 117.575 23.4439ZM117.575 20.6927C118.847 20.6927 120.013 20.4683 121.07 20.0195C122.147 19.5512 123.077 18.9171 123.861 18.1171C124.644 17.2976 125.241 16.3415 125.652 15.2488C126.083 14.1561 126.299 12.9756 126.299 11.7073C126.299 10.439 126.083 9.25854 125.652 8.16585C125.241 7.07317 124.644 6.12683 123.861 5.32683C123.077 4.50732 122.147 3.87317 121.07 3.42439C120.013 2.97561 118.847 2.75122 117.575 2.75122C116.302 2.75122 115.127 2.97561 114.05 3.42439C112.992 3.87317 112.072 4.50732 111.289 5.32683C110.525 6.12683 109.928 7.07317 109.497 8.16585C109.066 9.25854 108.851 10.439 108.851 11.7073C108.851 12.9756 109.066 14.1561 109.497 15.2488C109.928 16.3415 110.525 17.2976 111.289 18.1171C112.072 18.9171 112.992 19.5512 114.05 20.0195C115.127 20.4683 116.302 20.6927 117.575 20.6927Z" fill="white"/>
<path d="M135.666 23.1512C135.235 23.1512 134.873 23.0049 134.579 22.7122C134.305 22.4195 134.168 22.0585 134.168 21.6293V1.81463C134.168 1.36585 134.305 1.00488 134.579 0.731707C134.873 0.439024 135.235 0.292683 135.666 0.292683C136.136 0.292683 136.528 0.478049 136.841 0.84878L149.648 17.8244V1.81463C149.648 1.36585 149.795 1.00488 150.089 0.731707C150.382 0.439024 150.745 0.292683 151.175 0.292683C151.626 0.292683 151.988 0.439024 152.262 0.731707C152.536 1.00488 152.673 1.36585 152.673 1.81463V21.6293C152.673 22.0585 152.536 22.4195 152.262 22.7122C151.988 23.0049 151.626 23.1512 151.175 23.1512C150.98 23.1512 150.764 23.1122 150.529 23.0341C150.314 22.9366 150.138 22.8 150 22.6244L137.193 5.64878V21.6293C137.193 22.0585 137.047 22.4195 136.753 22.7122C136.479 23.0049 136.116 23.1512 135.666 23.1512Z" fill="white"/>
<path d="M160.225 23.1512C159.794 23.1512 159.432 23.0049 159.138 22.7122C158.844 22.4195 158.697 22.0585 158.697 21.6293V1.81463C158.697 1.36585 158.844 1.00488 159.138 0.731707C159.432 0.439024 159.794 0.292683 160.225 0.292683H173.502C173.952 0.292683 174.315 0.429268 174.589 0.702439C174.863 0.956098 175 1.29756 175 1.72683C175 2.13658 174.863 2.46829 174.589 2.72195C174.315 2.97561 173.952 3.10244 173.502 3.10244H161.752V10.2146H170.183C170.633 10.2146 170.995 10.3512 171.27 10.6244C171.544 10.878 171.681 11.2098 171.681 11.6195C171.681 12.0293 171.544 12.3707 171.27 12.6439C170.995 12.8976 170.633 13.0244 170.183 13.0244H161.752V20.3415H173.502C173.952 20.3415 174.315 20.4683 174.589 20.722C174.863 20.9756 175 21.3073 175 21.7171C175 22.1463 174.863 22.4976 174.589 22.7707C174.315 23.0244 173.952 23.1512 173.502 23.1512H160.225Z" fill="white"/>
</svg>
